<svg width="161" height="161" viewBox="0 0 161 161" fill="none" xmlns="http://www.w3.org/2000/svg">
<rect x="80.0156" y="2.12132" width="110.16" height="110.16" transform="rotate(45 80.0156 2.12132)" fill="white" stroke="black" stroke-width="3"/>
<path d="M87.9993 80.5765H88.4993V80.0765V75.2432H92.8327V82.7432C92.8327 83.9417 91.8645 84.9098 90.666 84.9098H69.3327C68.1342 84.9098 67.166 83.9417 67.166 82.7432V75.2432H71.4993V80.0765V80.5765H71.9993H87.9993Z" fill="#F13312" stroke="#F13312"/>
<path d="M54.6144 65.0552L54.5776 65.0289L61.4936 55.8331L61.4941 55.8324C62.3964 54.6285 63.8425 53.9072 65.3553 53.9072H94.6887C96.2081 53.9072 97.6568 54.6353 98.5625 55.8501L98.5628 55.8506L105.441 65.0529L105.407 65.0786L105.701 65.4733C105.988 65.8602 106.167 66.2807 106.167 66.7432V96.0766C106.167 98.7417 103.999 100.91 101.334 100.91H58.6673C56.0021 100.91 53.834 98.7417 53.834 96.0766V66.7432C53.834 66.2786 54.0157 65.8534 54.3073 65.4646L54.6144 65.0552ZM65.3553 58.2432H65.1057L64.9557 58.4427L60.945 63.776L60.3431 64.5766H61.3447H98.6753H99.6733L99.0758 63.7772L95.0891 58.4439L94.9392 58.2432H94.6887H65.3553ZM58.1673 96.0766V96.5766H58.6673H101.339H101.839L101.839 96.0765L101.834 69.4098L101.834 68.9099H101.334H58.6673H58.1673V69.4099V96.0766Z" fill="#F13312" stroke="#F13312"/>
</svg>
